Anton.ufo
<glyph name="ampersand" format="1">
  <advance width="1158"/>
  <unicode hex="0026"/>
  <outline>
    <contour>
      <point x="84" y="140"/>
      <point x="197" y="-20"/>
      <point x="418" y="-20" type="curve" smooth="yes"/>
      <point x="785" y="-20"/>
      <point x="913" y="477"/>
      <point x="1128" y="690" type="curve"/>
      <point x="988" y="934" type="line"/>
      <point x="720" y="616"/>
      <point x="585" y="289"/>
      <point x="483" y="289" type="curve" smooth="yes"/>
      <point x="420" y="289"/>
      <point x="368" y="360"/>
      <point x="368" y="466" type="curve" smooth="yes"/>
      <point x="368" y="806"/>
      <point x="934" y="1025"/>
      <point x="934" y="1434" type="curve" smooth="yes"/>
      <point x="934" y="1657"/>
      <point x="783" y="1781"/>
      <point x="585" y="1781" type="curve" smooth="yes"/>
      <point x="384" y="1781"/>
      <point x="233" y="1648"/>
      <point x="233" y="1421" type="curve"/>
      <point x="233" y="1140"/>
      <point x="593" y="355.25"/>
      <point x="713" y="0" type="curve"/>
      <point x="1057" y="0" type="line"/>
      <point x="557" y="1348"/>
      <point x="551" y="1278"/>
      <point x="551" y="1441" type="curve" smooth="yes"/>
      <point x="551" y="1515"/>
      <point x="591" y="1552"/>
      <point x="636" y="1552" type="curve" smooth="yes"/>
      <point x="686" y="1552"/>
      <point x="715" y="1525"/>
      <point x="715" y="1427" type="curve" smooth="yes"/>
      <point x="715" y="1328"/>
      <point x="653" y="1239"/>
      <point x="607" y="1191" type="curve" smooth="yes"/>
      <point x="555" y="1138"/>
      <point x="374" y="996"/>
      <point x="364" y="988" type="curve" smooth="yes"/>
      <point x="191" y="845"/>
      <point x="84" y="706"/>
      <point x="84" y="397" type="curve" smooth="yes"/>
    </contour>
  </outline>
</glyph>
<glyph name="one" format="1">
  <advance width="722"/>
  <unicode hex="0031"/>
  <outline>
    <contour>
      <point x="248" y="0" type="line"/>
      <point x="608" y="0" type="line"/>
      <point x="608" y="1761" type="line"/>
      <point x="308" y="1761" type="line"/>
      <point x="252" y="1629"/>
      <point x="136" y="1556"/>
      <point x="30" y="1541" type="curve"/>
      <point x="30" y="1260" type="line"/>
      <point x="104" y="1260"/>
      <point x="200" y="1289"/>
      <point x="248" y="1346" type="curve"/>
    </contour>
  </outline>
</glyph>
<glyph name="greater" format="1">
  <advance width="730"/>
  <unicode hex="003E"/>
  <outline>
    <contour>
      <point x="94" y="200" type="line"/>
      <point x="664" y="545" type="line"/>
      <point x="664" y="959" type="line"/>
      <point x="94" y="1300" type="line"/>
      <point x="94" y="941" type="line"/>
      <point x="436" y="749" type="line"/>
      <point x="94" y="558" type="line"/>
    </contour>
  </outline>
</glyph>
<glyph name="at" format="1">
  <advance width="1622"/>
  <unicode hex="0040"/>
  <outline>
    <contour>
      <point x="102" y="189"/>
      <point x="385" y="-64"/>
      <point x="804" y="-64" type="curve" smooth="yes"/>
      <point x="875" y="-64"/>
      <point x="935" y="-54"/>
      <point x="1031" y="-35" type="curve"/>
      <point x="997" y="176" type="line"/>
      <point x="937" y="159"/>
      <point x="864" y="148"/>
      <point x="808" y="148" type="curve" smooth="yes"/>
      <point x="507" y="148"/>
      <point x="352" y="379"/>
      <point x="352" y="833" type="curve" smooth="yes"/>
      <point x="352" y="1315"/>
      <point x="544" y="1568"/>
      <point x="874" y="1568" type="curve" smooth="yes"/>
      <point x="1187" y="1568"/>
      <point x="1309" y="1286"/>
      <point x="1309" y="942" type="curve" smooth="yes"/>
      <point x="1309" y="634"/>
      <point x="1279" y="582"/>
      <point x="1207" y="582" type="curve" smooth="yes"/>
      <point x="1150" y="582"/>
      <point x="1132" y="651"/>
      <point x="1132" y="777" type="curve" smooth="yes"/>
      <point x="1132" y="1302" type="line"/>
      <point x="959" y="1302" type="line"/>
      <point x="928" y="1180" type="line"/>
      <point x="906" y="1249"/>
      <point x="842" y="1283"/>
      <point x="789" y="1283" type="curve" smooth="yes"/>
      <point x="615" y="1283"/>
      <point x="500" y="1101"/>
      <point x="500" y="788" type="curve" smooth="yes"/>
      <point x="500" y="503"/>
      <point x="611" y="361"/>
      <point x="759" y="361" type="curve" smooth="yes"/>
      <point x="860" y="361"/>
      <point x="921" y="444"/>
      <point x="947" y="607" type="curve"/>
      <point x="992" y="422"/>
      <point x="1099" y="378"/>
      <point x="1181" y="378" type="curve" smooth="yes"/>
      <point x="1414" y="378"/>
      <point x="1516" y="572"/>
      <point x="1516" y="910" type="curve" smooth="yes"/>
      <point x="1516" y="1488"/>
      <point x="1277" y="1780"/>
      <point x="886" y="1780" type="curve" smooth="yes"/>
      <point x="390" y="1780"/>
      <point x="102" y="1440"/>
      <point x="102" y="836" type="curve" smooth="yes"/>
    </contour>
    <contour>
      <point x="920" y="657"/>
      <point x="865" y="605"/>
      <point x="810" y="605" type="curve" smooth="yes"/>
      <point x="750" y="605"/>
      <point x="724" y="667"/>
      <point x="724" y="794" type="curve" smooth="yes"/>
      <point x="724" y="963"/>
      <point x="766" y="1102"/>
      <point x="920" y="1062" type="curve"/>
      <point x="920" y="759" type="line" smooth="yes"/>
    </contour>
  </outline>
</glyph>
<glyph name="A" format="1">
  <advance width="1039"/>
  <unicode hex="0041"/>
  <outline>
    <contour>
      <point x="36" y="0" type="line"/>
      <point x="262" y="1760" type="line"/>
      <point x="772" y="1760" type="line"/>
      <point x="1003" y="0" type="line"/>
      <point x="677" y="0" type="line"/>
      <point x="525" y="1331" type="line"/>
      <point x="518" y="1331" type="line"/>
      <point x="378" y="0" type="line"/>
    </contour>
    <contour>
      <point x="318" y="281" type="line"/>
      <point x="318" y="566" type="line"/>
      <point x="724" y="566" type="line"/>
      <point x="724" y="281" type="line"/>
    </contour>
    <contour>
      <point x="520" y="0" type="move" name="top"/>
    </contour>
    <contour>
      <point x="935" y="10" type="move" name="ogonek"/>
    </contour>
    <contour>
      <point x="513" y="1820" type="move" name="new anchor"/>
    </contour>
  </outline>
</glyph>
<glyph name="G" format="1">
  <advance width="1092"/>
  <unicode hex="0047"/>
  <outline>
    <contour>
      <point x="94" y="139"/>
      <point x="277" y="-20"/>
      <point x="501" y="-20" type="curve" smooth="yes"/>
      <point x="632" y="-20"/>
      <point x="743" y="64"/>
      <point x="789" y="228" type="curve"/>
      <point x="849" y="0" type="line"/>
      <point x="986" y="0" type="line"/>
      <point x="986" y="1016" type="line"/>
      <point x="562" y="1016" type="line"/>
      <point x="562" y="768" type="line"/>
      <point x="684" y="768" type="line"/>
      <point x="684" y="505" type="line" smooth="yes"/>
      <point x="684" y="341"/>
      <point x="640" y="293"/>
      <point x="559" y="293" type="curve" smooth="yes"/>
      <point x="477" y="293"/>
      <point x="458" y="355"/>
      <point x="458" y="501" type="curve" smooth="yes"/>
      <point x="458" y="1299" type="line" smooth="yes"/>
      <point x="458" y="1427"/>
      <point x="485" y="1467"/>
      <point x="565" y="1467" type="curve" smooth="yes"/>
      <point x="630" y="1467"/>
      <point x="660" y="1434"/>
      <point x="660" y="1295" type="curve" smooth="yes"/>
      <point x="660" y="1181" type="line"/>
      <point x="986" y="1181" type="line"/>
      <point x="986" y="1288" type="line" smooth="yes"/>
      <point x="986" y="1625"/>
      <point x="888" y="1780"/>
      <point x="555" y="1780" type="curve" smooth="yes"/>
      <point x="267" y="1780"/>
      <point x="94" y="1632"/>
      <point x="94" y="1307" type="curve" smooth="yes"/>
      <point x="94" y="502" type="line" smooth="yes"/>
    </contour>
    <contour>
      <point x="546" y="0" type="move" name="top"/>
    </contour>
    <contour>
      <point x="546" y="0" type="move" name="bottom"/>
    </contour>
  </outline>
</glyph>
<glyph name="O" format="1">
  <advance width="1090"/>
  <unicode hex="004F"/>
  <outline>
    <contour>
      <point x="632" y="380"/>
      <point x="625" y="293"/>
      <point x="548" y="293" type="curve" smooth="yes"/>
      <point x="466" y="293"/>
      <point x="458" y="373"/>
      <point x="458" y="465" type="curve" smooth="yes"/>
      <point x="458" y="1332" type="line" smooth="yes"/>
      <point x="458" y="1407"/>
      <point x="480" y="1467"/>
      <point x="548" y="1467" type="curve" smooth="yes"/>
      <point x="618" y="1467"/>
      <point x="632" y="1398"/>
      <point x="632" y="1331" type="curve" smooth="yes"/>
      <point x="632" y="465" type="line" smooth="yes"/>
    </contour>
    <contour>
      <point x="94" y="158"/>
      <point x="260" y="-20"/>
      <point x="548" y="-20" type="curve" smooth="yes"/>
      <point x="836" y="-20"/>
      <point x="996" y="158"/>
      <point x="996" y="471" type="curve" smooth="yes"/>
      <point x="996" y="1320" type="line" smooth="yes"/>
      <point x="996" y="1623"/>
      <point x="830" y="1780"/>
      <point x="548" y="1780" type="curve" smooth="yes"/>
      <point x="266" y="1780"/>
      <point x="94" y="1623"/>
      <point x="94" y="1320" type="curve" smooth="yes"/>
      <point x="94" y="471" type="line" smooth="yes"/>
    </contour>
    <contour>
      <point x="545" y="0" type="move" name="top"/>
    </contour>
  </outline>
</glyph>
<glyph name="P" format="1">
  <advance width="1025"/>
  <unicode hex="0050"/>
  <outline>
    <contour>
      <point x="114" y="0" type="line"/>
      <point x="474" y="0" type="line"/>
      <point x="474" y="697" type="line"/>
      <point x="617" y="697" type="line" smooth="yes"/>
      <point x="909" y="697"/>
      <point x="996" y="903"/>
      <point x="996" y="1224" type="curve" smooth="yes"/>
      <point x="996" y="1241.51"/>
      <point x="995.759" y="1258.55"/>
      <point x="995.271" y="1275.14" type="curve" smooth="yes"/>
      <point x="985.269" y="1614.65"/>
      <point x="871" y="1760"/>
      <point x="593" y="1760" type="curve" smooth="yes"/>
      <point x="114" y="1760" type="line"/>
    </contour>
    <contour>
      <point x="474" y="993" type="line"/>
      <point x="474" y="1490" type="line"/>
      <point x="513" y="1490" type="line" smooth="yes"/>
      <point x="617.686" y="1490"/>
      <point x="633.971" y="1405.03"/>
      <point x="635.801" y="1264.51" type="curve" smooth="yes"/>
      <point x="635.946" y="1253.35"/>
      <point x="636" y="1241.85"/>
      <point x="636" y="1230" type="curve" smooth="yes"/>
      <point x="636" y="1061"/>
      <point x="628" y="993"/>
      <point x="514" y="993" type="curve" smooth="yes"/>
    </contour>
  </outline>
</glyph>
<glyph name="Q" format="1">
  <advance width="1110"/>
  <unicode hex="0051"/>
  <outline>
    <contour>
      <point x="788" y="-327" type="line"/>
      <point x="967" y="-178" type="line"/>
      <point x="703" y="133" type="line"/>
      <point x="485" y="5" type="line"/>
    </contour>
    <component base="O"/>
  </outline>
</glyph>
<glyph name="grave" format="1">
  <advance width="650"/>
  <unicode hex="0060"/>
  <outline>
    <contour>
      <point x="554" y="1553" type="line"/>
      <point x="554" y="1776" type="line"/>
      <point x="79" y="1994" type="line"/>
      <point x="79" y="1647" type="line"/>
    </contour>
    <contour>
      <point x="316.5" y="0" type="move" name="_top"/>
    </contour>
  </outline>
</glyph>
<glyph name="b" format="1">
  <advance width="1083"/>
  <unicode hex="0062"/>
  <outline>
    <contour>
      <point x="508" y="41"/>
      <point x="580" y="-18"/>
      <point x="677" y="-18" type="curve" smooth="yes"/>
      <point x="901" y="-18"/>
      <point x="993" y="160"/>
      <point x="993" y="391" type="curve" smooth="yes"/>
      <point x="993" y="1114" type="line" smooth="yes"/>
      <point x="993" y="1360"/>
      <point x="910" y="1518"/>
      <point x="666" y="1518" type="curve" smooth="yes"/>
      <point x="593" y="1518"/>
      <point x="506" y="1482"/>
      <point x="464" y="1407" type="curve"/>
      <point x="464" y="1769" type="line"/>
      <point x="110" y="1769" type="line"/>
      <point x="110" y="0" type="line"/>
      <point x="464" y="0" type="line"/>
      <point x="464" y="160" type="line"/>
    </contour>
    <contour>
      <point x="635" y="344"/>
      <point x="637" y="260"/>
      <point x="558" y="260" type="curve" smooth="yes"/>
      <point x="475" y="260"/>
      <point x="464" y="346"/>
      <point x="464" y="454" type="curve" smooth="yes"/>
      <point x="464" y="1086" type="line" smooth="yes"/>
      <point x="464" y="1176"/>
      <point x="484" y="1240"/>
      <point x="556" y="1240" type="curve" smooth="yes"/>
      <point x="626" y="1240"/>
      <point x="635" y="1172"/>
      <point x="635" y="1082" type="curve" smooth="yes"/>
      <point x="635" y="454" type="line" smooth="yes"/>
    </contour>
  </outline>
</glyph>
<glyph name="f" format="1">
  <advance width="658"/>
  <unicode hex="0066"/>
  <outline>
    <contour>
      <point x="134" y="0" type="line"/>
      <point x="488" y="0" type="line"/>
      <point x="488" y="1190" type="line"/>
      <point x="602" y="1190" type="line"/>
      <point x="602" y="1440" type="line"/>
      <point x="488" y="1440" type="line"/>
      <point x="488" y="1493" type="line" smooth="yes"/>
      <point x="488" y="1541"/>
      <point x="524" y="1551"/>
      <point x="559" y="1551" type="curve" smooth="yes"/>
      <point x="574" y="1551"/>
      <point x="590" y="1550"/>
      <point x="602" y="1548" type="curve"/>
      <point x="602" y="1749" type="line"/>
      <point x="573" y="1761"/>
      <point x="502" y="1780"/>
      <point x="415" y="1780" type="curve" smooth="yes"/>
      <point x="254" y="1780"/>
      <point x="136" y="1686"/>
      <point x="136" y="1525" type="curve" smooth="yes"/>
      <point x="136" y="1440" type="line"/>
      <point x="36" y="1440" type="line"/>
      <point x="36" y="1190" type="line"/>
      <point x="134" y="1190" type="line"/>
    </contour>
  </outline>
</glyph>
<glyph name="i" format="1">
  <advance width="574"/>
  <unicode hex="0069"/>
  <outline>
    <contour>
      <point x="110" y="0" type="line"/>
      <point x="464" y="0" type="line"/>
      <point x="464" y="1500" type="line"/>
      <point x="110" y="1500" type="line"/>
    </contour>
    <contour>
      <point x="110" y="1600" type="line"/>
      <point x="464" y="1600" type="line"/>
      <point x="464" y="1800" type="line"/>
      <point x="110" y="1800" type="line"/>
    </contour>
  </outline>
</glyph>
<glyph name="j" format="1">
  <advance width="612"/>
  <unicode hex="006A"/>
  <outline>
    <contour>
      <point x="63" y="-167"/>
      <point x="143" y="-176"/>
      <point x="220" y="-176" type="curve" smooth="yes"/>
      <point x="426" y="-176"/>
      <point x="502" y="-47"/>
      <point x="502" y="166" type="curve" smooth="yes"/>
      <point x="502" y="1500" type="line"/>
      <point x="148" y="1500" type="line"/>
      <point x="148" y="156" type="line" smooth="yes"/>
      <point x="148" y="119"/>
      <point x="126" y="89"/>
      <point x="63" y="89" type="curve" smooth="yes"/>
      <point x="56" y="89"/>
      <point x="47" y="89"/>
      <point x="38" y="90" type="curve"/>
      <point x="38" y="-150" type="line"/>
    </contour>
    <contour>
      <point x="148" y="1600" type="line"/>
      <point x="502" y="1600" type="line"/>
      <point x="502" y="1800" type="line"/>
      <point x="148" y="1800" type="line"/>
    </contour>
  </outline>
</glyph>
<glyph name="m" format="1">
  <advance width="1614"/>
  <unicode hex="006D"/>
  <outline>
    <contour>
      <point x="110" y="0" type="line"/>
      <point x="464" y="0" type="line"/>
      <point x="464" y="1059" type="line" smooth="yes"/>
      <point x="464" y="1140"/>
      <point x="485" y="1240"/>
      <point x="566" y="1240" type="curve" smooth="yes"/>
      <point x="629" y="1240"/>
      <point x="636" y="1162"/>
      <point x="636" y="1099" type="curve" smooth="yes"/>
      <point x="636" y="0" type="line"/>
      <point x="990" y="0" type="line"/>
      <point x="990" y="1095" type="line" smooth="yes"/>
      <point x="990" y="1430"/>
      <point x="881" y="1518"/>
      <point x="712" y="1518" type="curve" smooth="yes"/>
      <point x="562" y="1518"/>
      <point x="496" y="1448"/>
      <point x="464" y="1326" type="curve"/>
      <point x="464" y="1500" type="line"/>
      <point x="110" y="1500" type="line"/>
    </contour>
    <contour>
      <point x="1160" y="0" type="line"/>
      <point x="1514" y="0" type="line"/>
      <point x="1514" y="1096" type="line" smooth="yes"/>
      <point x="1514" y="1343"/>
      <point x="1457" y="1518"/>
      <point x="1208" y="1518" type="curve" smooth="yes"/>
      <point x="1070" y="1518"/>
      <point x="1003" y="1462"/>
      <point x="948" y="1363" type="curve"/>
      <point x="948" y="1363"/>
      <point x="990" y="1077"/>
      <point x="990" y="1077" type="curve" smooth="yes"/>
      <point x="990" y="1154"/>
      <point x="1010" y="1240"/>
      <point x="1087" y="1240" type="curve" smooth="yes"/>
      <point x="1136" y="1240"/>
      <point x="1160" y="1192"/>
      <point x="1160" y="1095" type="curve" smooth="yes"/>
    </contour>
  </outline>
</glyph>
<glyph name="s" format="1">
  <advance width="935"/>
  <unicode hex="0073"/>
  <outline>
    <contour>
      <point x="68" y="96"/>
      <point x="194" y="-18"/>
      <point x="470" y="-18" type="curve" smooth="yes"/>
      <point x="725" y="-18"/>
      <point x="885" y="94"/>
      <point x="885" y="396" type="curve"/>
      <point x="885" y="630"/>
      <point x="799" y="725"/>
      <point x="655" y="852" type="curve" smooth="yes"/>
      <point x="462" y="1023" type="line" smooth="yes"/>
      <point x="424" y="1057"/>
      <point x="404" y="1102"/>
      <point x="404" y="1155" type="curve" smooth="yes"/>
      <point x="404" y="1205"/>
      <point x="423" y="1240"/>
      <point x="479" y="1240" type="curve" smooth="yes"/>
      <point x="534" y="1240"/>
      <point x="557" y="1207"/>
      <point x="557" y="1128" type="curve" smooth="yes"/>
      <point x="557" y="1035" type="line"/>
      <point x="858" y="1035" type="line"/>
      <point x="858" y="1132" type="line" smooth="yes"/>
      <point x="858" y="1423"/>
      <point x="737" y="1518"/>
      <point x="476" y="1518" type="curve" smooth="yes"/>
      <point x="219.678" y="1518"/>
      <point x="72" y="1394.18"/>
      <point x="72" y="1127" type="curve" smooth="yes"/>
      <point x="72" y="943"/>
      <point x="122" y="855"/>
      <point x="243" y="752" type="curve" smooth="yes"/>
      <point x="421" y="598" type="line" smooth="yes"/>
      <point x="510" y="522"/>
      <point x="541" y="498"/>
      <point x="541" y="368" type="curve" smooth="yes"/>
      <point x="541" y="290"/>
      <point x="521" y="260"/>
      <point x="470" y="260" type="curve" smooth="yes"/>
      <point x="411" y="260"/>
      <point x="391" y="301"/>
      <point x="391" y="369" type="curve" smooth="yes"/>
      <point x="391" y="505" type="line"/>
      <point x="68" y="505" type="line"/>
      <point x="68" y="432" type="line" smooth="yes"/>
    </contour>
    <contour>
      <point x="468" y="0" type="move" name="top"/>
    </contour>
    <contour>
      <point x="468" y="0" type="move" name="bottom"/>
    </contour>
  </outline>
</glyph>
<glyph name="u" format="1">
  <advance width="1086"/>
  <unicode hex="0075"/>
  <outline>
    <contour>
      <point x="100" y="143"/>
      <point x="148" y="-18"/>
      <point x="389" y="-18" type="curve" smooth="yes"/>
      <point x="525" y="-18"/>
      <point x="574" y="45"/>
      <point x="620" y="160" type="curve"/>
      <point x="620" y="0" type="line"/>
      <point x="976" y="0" type="line"/>
      <point x="976" y="1500" type="line"/>
      <point x="622" y="1500" type="line"/>
      <point x="620" y="439" type="line"/>
      <point x="620" y="356"/>
      <point x="619" y="260"/>
      <point x="536" y="260" type="curve" smooth="yes"/>
      <point x="448" y="260"/>
      <point x="456" y="338"/>
      <point x="456" y="451" type="curve" smooth="yes"/>
      <point x="456" y="1500" type="line"/>
      <point x="100" y="1500" type="line"/>
      <point x="100" y="383" type="line" smooth="yes"/>
    </contour>
    <contour>
      <point x="543" y="0" type="move" name="top"/>
    </contour>
    <contour>
      <point x="977" y="10" type="move" name="ogonek"/>
    </contour>
  </outline>
</glyph>
<glyph name="v" format="1">
  <advance width="956"/>
  <unicode hex="0076"/>
  <outline>
    <contour>
      <point x="255" y="0" type="line"/>
      <point x="706" y="0" type="line"/>
      <point x="925" y="1500" type="line"/>
      <point x="591" y="1500" type="line"/>
      <point x="528" y="774" type="line"/>
      <point x="503" y="377" type="line"/>
      <point x="481" y="377" type="line"/>
      <point x="451" y="773" type="line"/>
      <point x="371" y="1500" type="line"/>
      <point x="32" y="1500" type="line"/>
    </contour>
  </outline>
</glyph>
<glyph name="macron" format="1">
  <advance width="696"/>
  <unicode hex="00AF"/>
  <outline>
    <contour>
      <point x="90" y="509" type="line"/>
      <point x="606" y="509" type="line"/>
      <point x="606" y="741" type="line"/>
      <point x="90" y="741" type="line"/>
    </contour>
    <contour>
      <point x="348" y="0" type="move" name="_top"/>
    </contour>
  </outline>
</glyph>
<glyph name="Ccedilla" format="1">
  <advance width="1076"/>
  <unicode hex="00C7"/>
  <outline>
    <contour>
      <point x="105" y="151"/>
      <point x="284" y="-21"/>
      <point x="539" y="-21" type="curve" smooth="yes"/>
      <point x="819" y="-21"/>
      <point x="987" y="116"/>
      <point x="987" y="425" type="curve" smooth="yes"/>
      <point x="987" y="758" type="line"/>
      <point x="631" y="758" type="line"/>
      <point x="631" y="420" type="line" smooth="yes"/>
      <point x="631" y="341"/>
      <point x="604" y="294"/>
      <point x="544" y="294" type="curve" smooth="yes"/>
      <point x="490" y="294"/>
      <point x="465" y="339"/>
      <point x="465" y="414" type="curve" smooth="yes"/>
      <point x="465" y="1326" type="line" smooth="yes"/>
      <point x="465" y="1404"/>
      <point x="481" y="1466"/>
      <point x="551" y="1466" type="curve" smooth="yes"/>
      <point x="607" y="1466"/>
      <point x="631" y="1429"/>
      <point x="631" y="1324" type="curve" smooth="yes"/>
      <point x="631" y="1058" type="line"/>
      <point x="979" y="1058" type="line"/>
      <point x="979" y="1368" type="line" smooth="yes"/>
      <point x="979" y="1645"/>
      <point x="797" y="1781"/>
      <point x="547" y="1781" type="curve" smooth="yes"/>
      <point x="242" y="1781"/>
      <point x="105" y="1595"/>
      <point x="105" y="1254" type="curve" smooth="yes"/>
      <point x="105" y="436" type="line" smooth="yes"/>
    </contour>
    <contour>
      <point x="448.5" y="-656.634"/>
      <point x="514.5" y="-669.634"/>
      <point x="582.5" y="-669.634" type="curve" smooth="yes"/>
      <point x="784.968" y="-669.634"/>
      <point x="882.137" y="-544.073"/>
      <point x="882.137" y="-409.908" type="curve" smooth="yes"/>
      <point x="882.137" y="-282.572"/>
      <point x="784.608" y="-177.485"/>
      <point x="616.5" y="-134.634" type="curve"/>
      <point x="596.5" y="1.36621" type="line"/>
      <point x="495.5" y="1.36621" type="line"/>
      <point x="455.5" y="-194.634" type="line"/>
      <point x="537.5" y="-212.634"/>
      <point x="615.5" y="-267.634"/>
      <point x="615.5" y="-357.634" type="curve" smooth="yes"/>
      <point x="615.5" y="-432.634"/>
      <point x="573.5" y="-499.634"/>
      <point x="384.5" y="-499.634" type="curve"/>
      <point x="384.5" y="-629.634" type="line"/>
    </contour>
  </outline>
</glyph>
<glyph name="Egrave" format="1">
  <advance width="894"/>
  <unicode hex="00C8"/>
  <outline>
    <contour>
      <point x="122" y="0" type="line"/>
      <point x="806" y="0" type="line"/>
      <point x="806" y="318" type="line"/>
      <point x="482" y="318" type="line"/>
      <point x="482" y="746" type="line"/>
      <point x="769" y="746" type="line"/>
      <point x="769" y="1065" type="line"/>
      <point x="482" y="1065" type="line"/>
      <point x="482" y="1440" type="line"/>
      <point x="783" y="1440" type="line"/>
      <point x="783" y="1761" type="line"/>
      <point x="122" y="1761" type="line"/>
    </contour>
    <contour>
      <point x="701.5" y="1944" type="line"/>
      <point x="701.5" y="2167" type="line"/>
      <point x="226.5" y="2385" type="line"/>
      <point x="226.5" y="2038" type="line"/>
    </contour>
  </outline>
</glyph>
<glyph name="Ocircumflex" format="1">
  <advance width="1096"/>
  <unicode hex="00D4"/>
  <outline>
    <contour>
      <point x="103" y="1944" type="line"/>
      <point x="462" y="1944" type="line"/>
      <point x="548" y="2229" type="line"/>
      <point x="634" y="1944" type="line"/>
      <point x="993" y="1944" type="line"/>
      <point x="752" y="2347" type="line"/>
      <point x="344" y="2347" type="line"/>
    </contour>
    <contour>
      <point x="631" y="385"/>
      <point x="628" y="294"/>
      <point x="551" y="294" type="curve" smooth="yes"/>
      <point x="469" y="294"/>
      <point x="465" y="378"/>
      <point x="465" y="470" type="curve" smooth="yes"/>
      <point x="465" y="1328" type="line" smooth="yes"/>
      <point x="465" y="1403"/>
      <point x="483" y="1466"/>
      <point x="551" y="1466" type="curve" smooth="yes"/>
      <point x="621" y="1466"/>
      <point x="631" y="1394"/>
      <point x="631" y="1327" type="curve" smooth="yes"/>
      <point x="631" y="470" type="line" smooth="yes"/>
    </contour>
    <contour>
      <point x="105" y="162"/>
      <point x="263" y="-21"/>
      <point x="551" y="-21" type="curve" smooth="yes"/>
      <point x="839" y="-21"/>
      <point x="991" y="162"/>
      <point x="991" y="475" type="curve" smooth="yes"/>
      <point x="991" y="1316" type="line" smooth="yes"/>
      <point x="991" y="1619"/>
      <point x="833" y="1781"/>
      <point x="551" y="1781" type="curve" smooth="yes"/>
      <point x="269" y="1781"/>
      <point x="105" y="1619"/>
      <point x="105" y="1316" type="curve" smooth="yes"/>
      <point x="105" y="475" type="line" smooth="yes"/>
    </contour>
  </outline>
</glyph>
<glyph name="Otilde" format="1">
  <advance width="1096"/>
  <unicode hex="00D5"/>
  <outline>
    <contour>
      <point x="495.5" y="2026"/>
      <point x="623.5" y="1944"/>
      <point x="711.5" y="1944" type="curve" smooth="yes"/>
      <point x="819.5" y="1944"/>
      <point x="887.5" y="2001"/>
      <point x="907.5" y="2144" type="curve" smooth="yes"/>
      <point x="916.5" y="2209" type="line"/>
      <point x="745.5" y="2237" type="line"/>
      <point x="724.5" y="2177"/>
      <point x="708.5" y="2169"/>
      <point x="689.5" y="2166" type="curve"/>
      <point x="685.5" y="2166" type="line" smooth="yes"/>
      <point x="635.5" y="2166"/>
      <point x="472.5" y="2240"/>
      <point x="391.5" y="2240" type="curve" smooth="yes"/>
      <point x="283.5" y="2240"/>
      <point x="218.5" y="2157"/>
      <point x="179.5" y="2022" type="curve"/>
      <point x="338.5" y="1965" type="line"/>
      <point x="356.5" y="2000"/>
      <point x="367.5" y="2019"/>
      <point x="389.5" y="2024" type="curve"/>
      <point x="396.5" y="2026"/>
      <point x="404.5" y="2026"/>
      <point x="412.5" y="2026" type="curve" smooth="yes"/>
    </contour>
    <contour>
      <point x="631" y="385"/>
      <point x="628" y="294"/>
      <point x="551" y="294" type="curve" smooth="yes"/>
      <point x="469" y="294"/>
      <point x="465" y="378"/>
      <point x="465" y="470" type="curve" smooth="yes"/>
      <point x="465" y="1328" type="line" smooth="yes"/>
      <point x="465" y="1403"/>
      <point x="483" y="1466"/>
      <point x="551" y="1466" type="curve" smooth="yes"/>
      <point x="621" y="1466"/>
      <point x="631" y="1394"/>
      <point x="631" y="1327" type="curve" smooth="yes"/>
      <point x="631" y="470" type="line" smooth="yes"/>
    </contour>
    <contour>
      <point x="105" y="162"/>
      <point x="263" y="-21"/>
      <point x="551" y="-21" type="curve" smooth="yes"/>
      <point x="839" y="-21"/>
      <point x="991" y="162"/>
      <point x="991" y="475" type="curve" smooth="yes"/>
      <point x="991" y="1316" type="line" smooth="yes"/>
      <point x="991" y="1619"/>
      <point x="833" y="1781"/>
      <point x="551" y="1781" type="curve" smooth="yes"/>
      <point x="269" y="1781"/>
      <point x="105" y="1619"/>
      <point x="105" y="1316" type="curve" smooth="yes"/>
      <point x="105" y="475" type="line" smooth="yes"/>
    </contour>
  </outline>
</glyph>
<glyph name="Ugrave" format="1">
  <advance width="1110"/>
  <unicode hex="00D9"/>
  <outline>
    <contour>
      <point x="110" y="132"/>
      <point x="263" y="-21"/>
      <point x="556" y="-21" type="curve" smooth="yes"/>
      <point x="849" y="-21"/>
      <point x="1000" y="132"/>
      <point x="1000" y="452" type="curve" smooth="yes"/>
      <point x="1000" y="1761" type="line"/>
      <point x="640" y="1761" type="line"/>
      <point x="640" y="457" type="line" smooth="yes"/>
      <point x="640" y="368"/>
      <point x="635" y="294"/>
      <point x="554" y="294" type="curve" smooth="yes"/>
      <point x="474" y="294"/>
      <point x="470" y="369"/>
      <point x="470" y="457" type="curve" smooth="yes"/>
      <point x="470" y="1761" type="line"/>
      <point x="110" y="1761" type="line"/>
      <point x="110" y="452" type="line" smooth="yes"/>
    </contour>
    <contour>
      <point x="792.5" y="1944" type="line"/>
      <point x="792.5" y="2167" type="line"/>
      <point x="317.5" y="2385" type="line"/>
      <point x="317.5" y="2038" type="line"/>
    </contour>
  </outline>
</glyph>
<glyph name="agrave" format="1">
  <advance width="1092"/>
  <unicode hex="00E0"/>
  <outline>
    <contour>
      <point x="100" y="174"/>
      <point x="154" y="-18"/>
      <point x="404" y="-18" type="curve" smooth="yes"/>
      <point x="507" y="-18"/>
      <point x="594" y="53"/>
      <point x="629" y="178" type="curve"/>
      <point x="629" y="0" type="line"/>
      <point x="987" y="0" type="line"/>
      <point x="987" y="1143" type="line" smooth="yes"/>
      <point x="987" y="1387"/>
      <point x="803" y="1518"/>
      <point x="563" y="1518" type="curve" smooth="yes"/>
      <point x="257" y="1518"/>
      <point x="122" y="1403"/>
      <point x="122" y="1105" type="curve" smooth="yes"/>
      <point x="122" y="1056" type="line"/>
      <point x="471" y="1056" type="line"/>
      <point x="471" y="1146" type="line" smooth="yes"/>
      <point x="471" y="1201"/>
      <point x="492" y="1243"/>
      <point x="557" y="1239" type="curve" smooth="yes"/>
      <point x="602" y="1236"/>
      <point x="622" y="1213"/>
      <point x="622" y="1123" type="curve" smooth="yes"/>
      <point x="622" y="969" type="line"/>
      <point x="286" y="854"/>
      <point x="100" y="839"/>
      <point x="100" y="430" type="curve" smooth="yes"/>
    </contour>
    <contour>
      <point x="622" y="322"/>
      <point x="603" y="262"/>
      <point x="545" y="262" type="curve" smooth="yes"/>
      <point x="492" y="262"/>
      <point x="465" y="306"/>
      <point x="465" y="395" type="curve" smooth="yes"/>
      <point x="465" y="588" type="line" smooth="yes"/>
      <point x="465" y="705"/>
      <point x="523" y="757"/>
      <point x="622" y="797" type="curve"/>
      <point x="622" y="379" type="line" smooth="yes"/>
    </contour>
    <contour>
      <point x="781" y="1681" type="line"/>
      <point x="781" y="1904" type="line"/>
      <point x="306" y="2122" type="line"/>
      <point x="306" y="1775" type="line"/>
    </contour>
  </outline>
</glyph>
<glyph name="aring" format="1">
  <advance width="1092"/>
  <unicode hex="00E5"/>
  <outline>
    <contour>
      <point x="100" y="174"/>
      <point x="154" y="-18"/>
      <point x="404" y="-18" type="curve" smooth="yes"/>
      <point x="507" y="-18"/>
      <point x="594" y="53"/>
      <point x="629" y="178" type="curve"/>
      <point x="629" y="0" type="line"/>
      <point x="987" y="0" type="line"/>
      <point x="987" y="1143" type="line" smooth="yes"/>
      <point x="987" y="1387"/>
      <point x="803" y="1518"/>
      <point x="563" y="1518" type="curve" smooth="yes"/>
      <point x="257" y="1518"/>
      <point x="122" y="1403"/>
      <point x="122" y="1105" type="curve" smooth="yes"/>
      <point x="122" y="1056" type="line"/>
      <point x="471" y="1056" type="line"/>
      <point x="471" y="1146" type="line" smooth="yes"/>
      <point x="471" y="1201"/>
      <point x="492" y="1243"/>
      <point x="557" y="1239" type="curve" smooth="yes"/>
      <point x="602" y="1236"/>
      <point x="622" y="1213"/>
      <point x="622" y="1123" type="curve" smooth="yes"/>
      <point x="622" y="969" type="line"/>
      <point x="286" y="854"/>
      <point x="100" y="839"/>
      <point x="100" y="430" type="curve" smooth="yes"/>
    </contour>
    <contour>
      <point x="622" y="322"/>
      <point x="603" y="262"/>
      <point x="545" y="262" type="curve" smooth="yes"/>
      <point x="492" y="262"/>
      <point x="465" y="306"/>
      <point x="465" y="395" type="curve" smooth="yes"/>
      <point x="465" y="588" type="line" smooth="yes"/>
      <point x="465" y="705"/>
      <point x="523" y="757"/>
      <point x="622" y="797" type="curve"/>
      <point x="622" y="379" type="line" smooth="yes"/>
    </contour>
    <contour>
      <point x="679.426" y="1885.04"/>
      <point x="634.233" y="1808.91"/>
      <point x="544.27" y="1808.91" type="curve" smooth="yes"/>
      <point x="453.666" y="1808.91"/>
      <point x="408.574" y="1884.87"/>
      <point x="408.574" y="1960.87" type="curve" smooth="yes"/>
      <point x="408.574" y="2036.96"/>
      <point x="453.767" y="2113.09"/>
      <point x="543.73" y="2113.09" type="curve" smooth="yes"/>
      <point x="634.334" y="2113.09"/>
      <point x="679.426" y="2037.13"/>
      <point x="679.426" y="1961.13" type="curve" smooth="yes"/>
    </contour>
    <contour>
      <point x="261" y="1791"/>
      <point x="372" y="1681"/>
      <point x="543" y="1681" type="curve" smooth="yes"/>
      <point x="714" y="1681"/>
      <point x="826" y="1792"/>
      <point x="826" y="1961" type="curve" smooth="yes"/>
      <point x="826" y="2130"/>
      <point x="714" y="2241"/>
      <point x="543" y="2241" type="curve" smooth="yes"/>
      <point x="372" y="2241"/>
      <point x="261" y="2130"/>
      <point x="261" y="1961" type="curve" smooth="yes"/>
    </contour>
  </outline>
</glyph>
<glyph name="Amacron" format="1">
  <advance width="1103"/>
  <unicode hex="0100"/>
  <outline>
    <contour>
      <point x="68" y="0" type="line"/>
      <point x="430" y="0" type="line"/>
      <point x="452" y="281" type="line"/>
      <point x="664" y="281" type="line"/>
      <point x="689" y="0" type="line"/>
      <point x="1035" y="0" type="line"/>
      <point x="825" y="1761" type="line"/>
      <point x="274" y="1761" type="line"/>
    </contour>
    <contour>
      <point x="477" y="565" type="line"/>
      <point x="550" y="1481" type="line"/>
      <point x="557" y="1481" type="line"/>
      <point x="637" y="565" type="line"/>
    </contour>
    <contour>
      <point x="293.5" y="1944" type="line"/>
      <point x="809.5" y="1944" type="line"/>
      <point x="809.5" y="2176" type="line"/>
      <point x="293.5" y="2176" type="line"/>
    </contour>
  </outline>
</glyph>
<glyph name="Aogonek" format="1">
  <advance width="1103"/>
  <unicode hex="0104"/>
  <outline>
    <contour>
      <point x="68" y="0" type="line"/>
      <point x="430" y="0" type="line"/>
      <point x="452" y="281" type="line"/>
      <point x="664" y="281" type="line"/>
      <point x="689" y="0" type="line"/>
      <point x="1035" y="0" type="line"/>
      <point x="825" y="1761" type="line"/>
      <point x="274" y="1761" type="line"/>
    </contour>
    <contour>
      <point x="577.5" y="-513.133"/>
      <point x="694.5" y="-605.133"/>
      <point x="884.5" y="-605.133" type="curve" smooth="yes"/>
      <point x="952.5" y="-605.133"/>
      <point x="1030.5" y="-583.133"/>
      <point x="1053.5" y="-570.133" type="curve"/>
      <point x="1053.5" y="-397.133" type="line"/>
      <point x="1029.5" y="-402.133"/>
      <point x="1003.5" y="-405.133"/>
      <point x="978.5" y="-405.133" type="curve" smooth="yes"/>
      <point x="898.5" y="-405.133"/>
      <point x="822.5" y="-375.133"/>
      <point x="822.5" y="-278.133" type="curve" smooth="yes"/>
      <point x="822.5" y="-168.133"/>
      <point x="898.5" y="-69.1328"/>
      <point x="972.5" y="20.8672" type="curve"/>
      <point x="831.5" y="20.8672" type="line"/>
      <point x="655.5" y="-78.1328"/>
      <point x="577.5" y="-218.133"/>
      <point x="577.5" y="-339.133" type="curve" smooth="yes"/>
    </contour>
    <contour>
      <point x="477" y="565" type="line"/>
      <point x="550" y="1481" type="line"/>
      <point x="557" y="1481" type="line"/>
      <point x="637" y="565" type="line"/>
    </contour>
  </outline>
</glyph>
<glyph name="Ccaron" format="1">
  <advance width="1076"/>
  <unicode hex="010C"/>
  <outline>
    <contour>
      <point x="105" y="151"/>
      <point x="284" y="-21"/>
      <point x="539" y="-21" type="curve" smooth="yes"/>
      <point x="819" y="-21"/>
      <point x="987" y="116"/>
      <point x="987" y="425" type="curve" smooth="yes"/>
      <point x="987" y="758" type="line"/>
      <point x="631" y="758" type="line"/>
      <point x="631" y="420" type="line" smooth="yes"/>
      <point x="631" y="341"/>
      <point x="604" y="294"/>
      <point x="544" y="294" type="curve" smooth="yes"/>
      <point x="490" y="294"/>
      <point x="465" y="339"/>
      <point x="465" y="414" type="curve" smooth="yes"/>
      <point x="465" y="1326" type="line" smooth="yes"/>
      <point x="465" y="1404"/>
      <point x="481" y="1466"/>
      <point x="551" y="1466" type="curve" smooth="yes"/>
      <point x="607" y="1466"/>
      <point x="631" y="1429"/>
      <point x="631" y="1324" type="curve" smooth="yes"/>
      <point x="631" y="1058" type="line"/>
      <point x="979" y="1058" type="line"/>
      <point x="979" y="1368" type="line" smooth="yes"/>
      <point x="979" y="1645"/>
      <point x="797" y="1781"/>
      <point x="547" y="1781" type="curve" smooth="yes"/>
      <point x="242" y="1781"/>
      <point x="105" y="1595"/>
      <point x="105" y="1254" type="curve" smooth="yes"/>
      <point x="105" y="436" type="line" smooth="yes"/>
    </contour>
    <contour>
      <point x="342" y="1944" type="line"/>
      <point x="750" y="1944" type="line"/>
      <point x="991" y="2347" type="line"/>
      <point x="632" y="2347" type="line"/>
      <point x="546" y="2062" type="line"/>
      <point x="460" y="2347" type="line"/>
      <point x="101" y="2347" type="line"/>
    </contour>
  </outline>
</glyph>
<glyph name="gcircumflex" format="1">
  <advance width="1084"/>
  <unicode hex="011D"/>
  <outline>
    <contour>
      <point x="188" y="-194"/>
      <point x="293" y="-220"/>
      <point x="501" y="-220" type="curve" smooth="yes"/>
      <point x="838" y="-220"/>
      <point x="980" y="-86"/>
      <point x="980" y="254" type="curve" smooth="yes"/>
      <point x="980" y="1500" type="line"/>
      <point x="624" y="1500" type="line"/>
      <point x="624" y="1331" type="line"/>
      <point x="599" y="1444"/>
      <point x="527" y="1518"/>
      <point x="395" y="1518" type="curve" smooth="yes"/>
      <point x="160" y="1518"/>
      <point x="102" y="1348"/>
      <point x="102" y="1106" type="curve" smooth="yes"/>
      <point x="102" y="543" type="line" smooth="yes"/>
      <point x="102" y="328"/>
      <point x="180" y="160"/>
      <point x="395" y="160" type="curve" smooth="yes"/>
      <point x="518" y="160"/>
      <point x="595" y="211"/>
      <point x="624" y="314" type="curve"/>
      <point x="624" y="231" type="line" smooth="yes"/>
      <point x="624" y="113"/>
      <point x="569" y="33"/>
      <point x="454" y="33" type="curve" smooth="yes"/>
      <point x="367" y="33"/>
      <point x="279" y="59"/>
      <point x="192" y="111" type="curve"/>
      <point x="71" y="-96" type="line"/>
    </contour>
    <contour>
      <point x="80.5" y="1681" type="line"/>
      <point x="439.5" y="1681" type="line"/>
      <point x="525.5" y="1966" type="line"/>
      <point x="611.5" y="1681" type="line"/>
      <point x="970.5" y="1681" type="line"/>
      <point x="729.5" y="2084" type="line"/>
      <point x="321.5" y="2084" type="line"/>
    </contour>
    <contour>
      <point x="624" y="481"/>
      <point x="596" y="430"/>
      <point x="540" y="430" type="curve" smooth="yes"/>
      <point x="466" y="430"/>
      <point x="458" y="510"/>
      <point x="458" y="582" type="curve" smooth="yes"/>
      <point x="458" y="1116" type="line" smooth="yes"/>
      <point x="458" y="1183"/>
      <point x="467" y="1243"/>
      <point x="536" y="1243" type="curve" smooth="yes"/>
      <point x="591" y="1243"/>
      <point x="624" y="1171"/>
      <point x="624" y="1116" type="curve" smooth="yes"/>
      <point x="624" y="582" type="line" smooth="yes"/>
    </contour>
  </outline>
</glyph>
<glyph name="Iogonek" format="1">
  <advance width="616"/>
  <unicode hex="012E"/>
  <outline>
    <contour>
      <point x="-16.5" y="-513.133"/>
      <point x="100.5" y="-605.133"/>
      <point x="290.5" y="-605.133" type="curve" smooth="yes"/>
      <point x="358.5" y="-605.133"/>
      <point x="436.5" y="-583.133"/>
      <point x="459.5" y="-570.133" type="curve"/>
      <point x="459.5" y="-397.133" type="line"/>
      <point x="435.5" y="-402.133"/>
      <point x="409.5" y="-405.133"/>
      <point x="384.5" y="-405.133" type="curve" smooth="yes"/>
      <point x="304.5" y="-405.133"/>
      <point x="228.5" y="-375.133"/>
      <point x="228.5" y="-278.133" type="curve" smooth="yes"/>
      <point x="228.5" y="-168.133"/>
      <point x="304.5" y="-69.1328"/>
      <point x="378.5" y="20.8672" type="curve"/>
      <point x="237.5" y="20.8672" type="line"/>
      <point x="61.5" y="-78.1328"/>
      <point x="-16.5" y="-218.133"/>
      <point x="-16.5" y="-339.133" type="curve" smooth="yes"/>
    </contour>
    <contour>
      <point x="128" y="0" type="line"/>
      <point x="488" y="0" type="line"/>
      <point x="488" y="1761" type="line"/>
      <point x="128" y="1761" type="line"/>
    </contour>
  </outline>
</glyph>
<glyph name="iogonek" format="1">
  <advance width="586"/>
  <unicode hex="012F"/>
  <outline>
    <contour>
      <point x="-31.5" y="-513.133"/>
      <point x="85.5" y="-605.133"/>
      <point x="275.5" y="-605.133" type="curve" smooth="yes"/>
      <point x="343.5" y="-605.133"/>
      <point x="421.5" y="-583.133"/>
      <point x="444.5" y="-570.133" type="curve"/>
      <point x="444.5" y="-397.133" type="line"/>
      <point x="420.5" y="-402.133"/>
      <point x="394.5" y="-405.133"/>
      <point x="369.5" y="-405.133" type="curve" smooth="yes"/>
      <point x="289.5" y="-405.133"/>
      <point x="213.5" y="-375.133"/>
      <point x="213.5" y="-278.133" type="curve" smooth="yes"/>
      <point x="213.5" y="-168.133"/>
      <point x="289.5" y="-69.1328"/>
      <point x="363.5" y="20.8672" type="curve"/>
      <point x="222.5" y="20.8672" type="line"/>
      <point x="46.5" y="-78.1328"/>
      <point x="-31.5" y="-218.133"/>
      <point x="-31.5" y="-339.133" type="curve" smooth="yes"/>
    </contour>
    <contour>
      <point x="115" y="0" type="line"/>
      <point x="471" y="0" type="line"/>
      <point x="471" y="1500" type="line"/>
      <point x="115" y="1500" type="line"/>
    </contour>
    <contour>
      <point x="115" y="1600" type="line"/>
      <point x="471" y="1600" type="line"/>
      <point x="471" y="1800" type="line"/>
      <point x="115" y="1800" type="line"/>
    </contour>
  </outline>
</glyph>
<glyph name="Jcircumflex" format="1">
  <advance width="1049"/>
  <unicode hex="0134"/>
  <outline>
    <contour>
      <point x="61" y="124"/>
      <point x="252" y="-21"/>
      <point x="491" y="-21" type="curve" smooth="yes"/>
      <point x="742" y="-21"/>
      <point x="921" y="160"/>
      <point x="921" y="440" type="curve" smooth="yes"/>
      <point x="921" y="1761" type="line"/>
      <point x="560" y="1761" type="line"/>
      <point x="560" y="418" type="line" smooth="yes"/>
      <point x="560" y="333"/>
      <point x="534" y="294"/>
      <point x="481" y="294" type="curve" smooth="yes"/>
      <point x="426" y="294"/>
      <point x="403" y="340"/>
      <point x="403" y="402" type="curve" smooth="yes"/>
      <point x="403" y="830" type="line"/>
      <point x="61" y="830" type="line"/>
      <point x="61" y="389" type="line" smooth="yes"/>
    </contour>
    <contour>
      <point x="274" y="1944" type="line"/>
      <point x="633" y="1944" type="line"/>
      <point x="719" y="2229" type="line"/>
      <point x="805" y="1944" type="line"/>
      <point x="1164" y="1944" type="line"/>
      <point x="923" y="2347" type="line"/>
      <point x="515" y="2347" type="line"/>
    </contour>
  </outline>
</glyph>
<glyph name="Lcaron" format="1">
  <advance width="864"/>
  <unicode hex="013D"/>
  <outline>
    <contour>
      <point x="715.5" y="1135" type="line"/>
      <point x="883.5" y="1135" type="line"/>
      <point x="985.5" y="1472" type="line"/>
      <point x="985.5" y="1781" type="line"/>
      <point x="654.5" y="1781" type="line"/>
      <point x="654.5" y="1463" type="line"/>
      <point x="781.5" y="1463" type="line"/>
    </contour>
    <contour>
      <point x="122" y="0" type="line"/>
      <point x="836" y="0" type="line"/>
      <point x="836" y="318" type="line"/>
      <point x="474" y="318" type="line"/>
      <point x="474" y="1761" type="line"/>
      <point x="122" y="1761" type="line"/>
    </contour>
  </outline>
</glyph>
<glyph name="lcaron" format="1">
  <advance width="594"/>
  <unicode hex="013E"/>
  <outline>
    <contour>
      <point x="784.5" y="1123" type="line"/>
      <point x="952.5" y="1123" type="line"/>
      <point x="1054.5" y="1460" type="line"/>
      <point x="1054.5" y="1769" type="line"/>
      <point x="723.5" y="1769" type="line"/>
      <point x="723.5" y="1451" type="line"/>
      <point x="850.5" y="1451" type="line"/>
    </contour>
    <contour>
      <point x="115" y="0" type="line"/>
      <point x="479" y="0" type="line"/>
      <point x="479" y="1769" type="line"/>
      <point x="115" y="1769" type="line"/>
    </contour>
  </outline>
</glyph>
<glyph name="ncommaaccent" format="1">
  <advance width="1099"/>
  <unicode hex="0146"/>
  <outline>
    <contour>
      <point x="112" y="0" type="line"/>
      <point x="468" y="0" type="line"/>
      <point x="468" y="1055" type="line" smooth="yes"/>
      <point x="468" y="1138"/>
      <point x="475" y="1239"/>
      <point x="558" y="1239" type="curve" smooth="yes"/>
      <point x="616" y="1239"/>
      <point x="638" y="1179"/>
      <point x="638" y="1120" type="curve" smooth="yes"/>
      <point x="638" y="0" type="line"/>
      <point x="994" y="0" type="line"/>
      <point x="994" y="1157" type="line" smooth="yes"/>
      <point x="994" y="1379"/>
      <point x="912" y="1518"/>
      <point x="704" y="1518" type="curve" smooth="yes"/>
      <point x="575" y="1518"/>
      <point x="494" y="1423"/>
      <point x="468" y="1309" type="curve"/>
      <point x="468" y="1500" type="line"/>
      <point x="112" y="1500" type="line"/>
    </contour>
    <contour>
      <point x="448.5" y="-809" type="line"/>
      <point x="616.5" y="-809" type="line"/>
      <point x="718.5" y="-472" type="line"/>
      <point x="718.5" y="-163" type="line"/>
      <point x="387.5" y="-163" type="line"/>
      <point x="387.5" y="-481" type="line"/>
      <point x="514.5" y="-481" type="line"/>
    </contour>
  </outline>
</glyph>
<glyph name="Ohungarumlaut" format="1">
  <advance width="1096"/>
  <unicode hex="0150"/>
  <outline>
    <contour>
      <point x="631" y="385"/>
      <point x="628" y="294"/>
      <point x="551" y="294" type="curve" smooth="yes"/>
      <point x="469" y="294"/>
      <point x="465" y="378"/>
      <point x="465" y="470" type="curve" smooth="yes"/>
      <point x="465" y="1328" type="line" smooth="yes"/>
      <point x="465" y="1403"/>
      <point x="483" y="1466"/>
      <point x="551" y="1466" type="curve" smooth="yes"/>
      <point x="621" y="1466"/>
      <point x="631" y="1394"/>
      <point x="631" y="1327" type="curve" smooth="yes"/>
      <point x="631" y="470" type="line" smooth="yes"/>
    </contour>
    <contour>
      <point x="105" y="162"/>
      <point x="263" y="-21"/>
      <point x="551" y="-21" type="curve" smooth="yes"/>
      <point x="839" y="-21"/>
      <point x="991" y="162"/>
      <point x="991" y="475" type="curve" smooth="yes"/>
      <point x="991" y="1316" type="line" smooth="yes"/>
      <point x="991" y="1619"/>
      <point x="833" y="1781"/>
      <point x="551" y="1781" type="curve" smooth="yes"/>
      <point x="269" y="1781"/>
      <point x="105" y="1619"/>
      <point x="105" y="1316" type="curve" smooth="yes"/>
      <point x="105" y="475" type="line" smooth="yes"/>
    </contour>
    <contour>
      <point x="347" y="1944" type="line"/>
      <point x="626" y="2374" type="line"/>
      <point x="385" y="2485" type="line"/>
      <point x="201" y="2006" type="line"/>
    </contour>
    <contour>
      <point x="749" y="1944" type="line"/>
      <point x="1089" y="2374" type="line"/>
      <point x="844" y="2485" type="line"/>
      <point x="603" y="2006" type="line"/>
    </contour>
  </outline>
</glyph>
<glyph name="rcaron" format="1">
  <advance width="759"/>
  <unicode hex="0159"/>
  <outline>
    <contour>
      <point x="112" y="0" type="line"/>
      <point x="470" y="0" type="line"/>
      <point x="470" y="1147" type="line" smooth="yes"/>
      <point x="470" y="1187"/>
      <point x="640" y="1219"/>
      <point x="728" y="1219" type="curve"/>
      <point x="728" y="1219"/>
      <point x="730" y="1518"/>
      <point x="725" y="1518" type="curve" smooth="yes"/>
      <point x="592" y="1518"/>
      <point x="504" y="1449"/>
      <point x="470" y="1333" type="curve"/>
      <point x="470" y="1500" type="line"/>
      <point x="112" y="1500" type="line"/>
    </contour>
    <contour>
      <point x="216.197" y="1681" type="line"/>
      <point x="624.197" y="1681" type="line"/>
      <point x="865.197" y="2084" type="line"/>
      <point x="506.197" y="2084" type="line"/>
      <point x="420.197" y="1799" type="line"/>
      <point x="334.197" y="2084" type="line"/>
      <point x="-24.8027" y="2084" type="line"/>
    </contour>
  </outline>
</glyph>
<glyph name="scircumflex" format="1">
  <advance width="941"/>
  <unicode hex="015D"/>
  <outline>
    <contour>
      <point x="73" y="96"/>
      <point x="199" y="-21"/>
      <point x="475" y="-21" type="curve" smooth="yes"/>
      <point x="730" y="-21"/>
      <point x="890" y="94"/>
      <point x="890" y="396" type="curve" smooth="yes"/>
      <point x="890" y="399" type="line" smooth="yes"/>
      <point x="889" y="627"/>
      <point x="804" y="725"/>
      <point x="660" y="852" type="curve" smooth="yes"/>
      <point x="467" y="1023" type="line" smooth="yes"/>
      <point x="429" y="1057"/>
      <point x="409" y="1102"/>
      <point x="409" y="1155" type="curve" smooth="yes"/>
      <point x="409" y="1205"/>
      <point x="428" y="1239"/>
      <point x="484" y="1239" type="curve" smooth="yes"/>
      <point x="539" y="1239"/>
      <point x="562" y="1207"/>
      <point x="562" y="1128" type="curve" smooth="yes"/>
      <point x="562" y="1035" type="line"/>
      <point x="863" y="1035" type="line"/>
      <point x="863" y="1132" type="line" smooth="yes"/>
      <point x="863" y="1423"/>
      <point x="742" y="1518"/>
      <point x="481" y="1518" type="curve" smooth="yes"/>
      <point x="224.678" y="1518"/>
      <point x="77" y="1394.18"/>
      <point x="77" y="1127" type="curve" smooth="yes"/>
      <point x="77" y="943"/>
      <point x="127" y="855"/>
      <point x="248" y="752" type="curve" smooth="yes"/>
      <point x="426" y="598" type="line" smooth="yes"/>
      <point x="515" y="522"/>
      <point x="546" y="501"/>
      <point x="546" y="371" type="curve" smooth="yes"/>
      <point x="546" y="293"/>
      <point x="526" y="263"/>
      <point x="475" y="263" type="curve" smooth="yes"/>
      <point x="416" y="263"/>
      <point x="396" y="304"/>
      <point x="396" y="372" type="curve" smooth="yes"/>
      <point x="396" y="505" type="line"/>
      <point x="73" y="505" type="line"/>
      <point x="73" y="432" type="line" smooth="yes"/>
    </contour>
    <contour>
      <point x="36.5" y="1681" type="line"/>
      <point x="395.5" y="1681" type="line"/>
      <point x="481.5" y="1966" type="line"/>
      <point x="567.5" y="1681" type="line"/>
      <point x="926.5" y="1681" type="line"/>
      <point x="685.5" y="2084" type="line"/>
      <point x="277.5" y="2084" type="line"/>
    </contour>
  </outline>
</glyph>
<glyph name="Uring" format="1">
  <advance width="1110"/>
  <unicode hex="016E"/>
  <outline>
    <contour>
      <point x="110" y="132"/>
      <point x="263" y="-21"/>
      <point x="556" y="-21" type="curve" smooth="yes"/>
      <point x="849" y="-21"/>
      <point x="1000" y="132"/>
      <point x="1000" y="452" type="curve" smooth="yes"/>
      <point x="1000" y="1761" type="line"/>
      <point x="640" y="1761" type="line"/>
      <point x="640" y="457" type="line" smooth="yes"/>
      <point x="640" y="368"/>
      <point x="635" y="294"/>
      <point x="554" y="294" type="curve" smooth="yes"/>
      <point x="474" y="294"/>
      <point x="470" y="369"/>
      <point x="470" y="457" type="curve" smooth="yes"/>
      <point x="470" y="1761" type="line"/>
      <point x="110" y="1761" type="line"/>
      <point x="110" y="452" type="line" smooth="yes"/>
    </contour>
    <contour>
      <point x="690.926" y="2206.04"/>
      <point x="645.733" y="2129.91"/>
      <point x="555.77" y="2129.91" type="curve" smooth="yes"/>
      <point x="465.166" y="2129.91"/>
      <point x="420.074" y="2205.87"/>
      <point x="420.074" y="2281.87" type="curve" smooth="yes"/>
      <point x="420.074" y="2357.96"/>
      <point x="465.267" y="2434.09"/>
      <point x="555.23" y="2434.09" type="curve" smooth="yes"/>
      <point x="645.834" y="2434.09"/>
      <point x="690.926" y="2358.13"/>
      <point x="690.926" y="2282.13" type="curve" smooth="yes"/>
    </contour>
    <contour>
      <point x="272.5" y="2112"/>
      <point x="383.5" y="2002"/>
      <point x="554.5" y="2002" type="curve" smooth="yes"/>
      <point x="725.5" y="2002"/>
      <point x="837.5" y="2113"/>
      <point x="837.5" y="2282" type="curve" smooth="yes"/>
      <point x="837.5" y="2451"/>
      <point x="725.5" y="2562"/>
      <point x="554.5" y="2562" type="curve" smooth="yes"/>
      <point x="383.5" y="2562"/>
      <point x="272.5" y="2451"/>
      <point x="272.5" y="2282" type="curve" smooth="yes"/>
    </contour>
  </outline>
</glyph>
<glyph name="uring" format="1">
  <advance width="1099"/>
  <unicode hex="016F"/>
  <outline>
    <contour>
      <point x="105" y="143"/>
      <point x="157" y="-18"/>
      <point x="398" y="-18" type="curve" smooth="yes"/>
      <point x="534" y="-18"/>
      <point x="583" y="45"/>
      <point x="629" y="160" type="curve"/>
      <point x="629" y="0" type="line"/>
      <point x="987" y="0" type="line"/>
      <point x="987" y="1500" type="line"/>
      <point x="631" y="1500" type="line"/>
      <point x="629" y="443" type="line"/>
      <point x="629" y="360"/>
      <point x="628" y="264"/>
      <point x="545" y="264" type="curve" smooth="yes"/>
      <point x="457" y="264"/>
      <point x="465" y="342"/>
      <point x="465" y="455" type="curve" smooth="yes"/>
      <point x="465" y="1500" type="line"/>
      <point x="105" y="1500" type="line"/>
      <point x="105" y="383" type="line" smooth="yes"/>
    </contour>
    <contour>
      <point x="681.926" y="1943.04"/>
      <point x="636.733" y="1866.91"/>
      <point x="546.77" y="1866.91" type="curve" smooth="yes"/>
      <point x="456.166" y="1866.91"/>
      <point x="411.074" y="1942.87"/>
      <point x="411.074" y="2018.87" type="curve" smooth="yes"/>
      <point x="411.074" y="2094.96"/>
      <point x="456.267" y="2171.09"/>
      <point x="546.23" y="2171.09" type="curve" smooth="yes"/>
      <point x="636.834" y="2171.09"/>
      <point x="681.926" y="2095.13"/>
      <point x="681.926" y="2019.13" type="curve" smooth="yes"/>
    </contour>
    <contour>
      <point x="263.5" y="1849"/>
      <point x="374.5" y="1739"/>
      <point x="545.5" y="1739" type="curve" smooth="yes"/>
      <point x="716.5" y="1739"/>
      <point x="828.5" y="1850"/>
      <point x="828.5" y="2019" type="curve" smooth="yes"/>
      <point x="828.5" y="2188"/>
      <point x="716.5" y="2299"/>
      <point x="545.5" y="2299" type="curve" smooth="yes"/>
      <point x="374.5" y="2299"/>
      <point x="263.5" y="2188"/>
      <point x="263.5" y="2019" type="curve" smooth="yes"/>
    </contour>
  </outline>
</glyph>
<glyph name="uogonek" format="1">
  <advance width="1099"/>
  <unicode hex="0173"/>
  <outline>
    <contour>
      <point x="105" y="143"/>
      <point x="157" y="-18"/>
      <point x="398" y="-18" type="curve" smooth="yes"/>
      <point x="534" y="-18"/>
      <point x="583" y="45"/>
      <point x="629" y="160" type="curve"/>
      <point x="629" y="0" type="line"/>
      <point x="987" y="0" type="line"/>
      <point x="987" y="1500" type="line"/>
      <point x="631" y="1500" type="line"/>
      <point x="629" y="443" type="line"/>
      <point x="629" y="360"/>
      <point x="628" y="264"/>
      <point x="545" y="264" type="curve" smooth="yes"/>
      <point x="457" y="264"/>
      <point x="465" y="342"/>
      <point x="465" y="455" type="curve" smooth="yes"/>
      <point x="465" y="1500" type="line"/>
      <point x="105" y="1500" type="line"/>
      <point x="105" y="383" type="line" smooth="yes"/>
    </contour>
    <contour>
      <point x="528" y="-531.134"/>
      <point x="645" y="-623.134"/>
      <point x="835" y="-623.134" type="curve" smooth="yes"/>
      <point x="903" y="-623.134"/>
      <point x="981" y="-601.134"/>
      <point x="1004" y="-588.134" type="curve"/>
      <point x="1004" y="-415.134" type="line"/>
      <point x="980" y="-420.134"/>
      <point x="954" y="-423.134"/>
      <point x="929" y="-423.134" type="curve" smooth="yes"/>
      <point x="849" y="-423.134"/>
      <point x="773" y="-393.134"/>
      <point x="773" y="-296.134" type="curve" smooth="yes"/>
      <point x="773" y="-186.134"/>
      <point x="849" y="-87.1338"/>
      <point x="923" y="2.86621" type="curve"/>
      <point x="782" y="2.86621" type="line"/>
      <point x="606" y="-96.1338"/>
      <point x="528" y="-236.134"/>
      <point x="528" y="-357.134" type="curve" smooth="yes"/>
    </contour>
  </outline>
</glyph>
<glyph name="Zdotaccent" format="1">
  <advance width="878"/>
  <unicode hex="017B"/>
  <outline>
    <contour>
      <point x="72" y="0" type="line"/>
      <point x="813" y="0" type="line"/>
      <point x="813" y="318" type="line"/>
      <point x="455" y="318" type="line"/>
      <point x="821" y="1454" type="line"/>
      <point x="821" y="1761" type="line"/>
      <point x="105" y="1761" type="line"/>
      <point x="105" y="1440" type="line"/>
      <point x="440" y="1440" type="line"/>
      <point x="72" y="325" type="line"/>
    </contour>
    <contour>
      <point x="267.5" y="1944" type="line"/>
      <point x="625.5" y="1944" type="line"/>
      <point x="625.5" y="2242" type="line"/>
      <point x="267.5" y="2242" type="line"/>
    </contour>
  </outline>
</glyph>
<glyph name="uni01C6" format="1">
  <advance width="1915"/>
  <unicode hex="01C6"/>
  <outline>
    <contour>
      <point x="98" y="201"/>
      <point x="126" y="-18"/>
      <point x="403" y="-18" type="curve" smooth="yes"/>
      <point x="528" y="-18"/>
      <point x="586" y="51"/>
      <point x="626" y="159" type="curve"/>
      <point x="626" y="0" type="line"/>
      <point x="982" y="0" type="line"/>
      <point x="982" y="1767" type="line"/>
      <point x="626" y="1767" type="line"/>
      <point x="626" y="1419" type="line"/>
      <point x="577" y="1485"/>
      <point x="504" y="1518"/>
      <point x="409" y="1518" type="curve" smooth="yes"/>
      <point x="204" y="1518"/>
      <point x="98" y="1357"/>
      <point x="98" y="1153" type="curve" smooth="yes"/>
      <point x="98" y="477" type="line" smooth="yes"/>
    </contour>
    <contour>
      <point x="1169" y="0" type="line"/>
      <point x="1839" y="0" type="line"/>
      <point x="1839" y="294" type="line"/>
      <point x="1525" y="294" type="line"/>
      <point x="1853" y="1233" type="line"/>
      <point x="1853" y="1500" type="line"/>
      <point x="1194" y="1500" type="line"/>
      <point x="1194" y="1197" type="line"/>
      <point x="1499" y="1197" type="line"/>
      <point x="1169" y="272" type="line"/>
    </contour>
    <contour>
      <point x="1307" y="1681" type="line"/>
      <point x="1715" y="1681" type="line"/>
      <point x="1956" y="2084" type="line"/>
      <point x="1597" y="2084" type="line"/>
      <point x="1511" y="1799" type="line"/>
      <point x="1425" y="2084" type="line"/>
      <point x="1066" y="2084" type="line"/>
    </contour>
    <contour>
      <point x="626" y="422"/>
      <point x="638" y="264"/>
      <point x="540" y="264" type="curve" smooth="yes"/>
      <point x="483" y="264"/>
      <point x="454" y="327"/>
      <point x="454" y="452" type="curve" smooth="yes"/>
      <point x="454" y="1083" type="line" smooth="yes"/>
      <point x="454" y="1160"/>
      <point x="465" y="1239"/>
      <point x="542" y="1239" type="curve" smooth="yes"/>
      <point x="612" y="1239"/>
      <point x="626" y="1153"/>
      <point x="626" y="1083" type="curve" smooth="yes"/>
      <point x="626" y="520" type="line" smooth="yes"/>
    </contour>
  </outline>
</glyph>
<glyph name="uni020D" format="1">
  <advance width="1076"/>
  <unicode hex="020D"/>
  <outline>
    <contour>
      <point x="622" y="308"/>
      <point x="598" y="260"/>
      <point x="538" y="260" type="curve" smooth="yes"/>
      <point x="478" y="260"/>
      <point x="454" y="308"/>
      <point x="454" y="375" type="curve" smooth="yes"/>
      <point x="454" y="1108" type="line" smooth="yes"/>
      <point x="454" y="1195"/>
      <point x="482" y="1239"/>
      <point x="538" y="1239" type="curve" smooth="yes"/>
      <point x="594" y="1239"/>
      <point x="622" y="1195"/>
      <point x="622" y="1108" type="curve" smooth="yes"/>
      <point x="622" y="375" type="line" smooth="yes"/>
    </contour>
    <contour>
      <point x="98" y="138"/>
      <point x="239" y="-18"/>
      <point x="538" y="-18" type="curve" smooth="yes"/>
      <point x="839" y="-18"/>
      <point x="978" y="143"/>
      <point x="978" y="449" type="curve" smooth="yes"/>
      <point x="978" y="1051" type="line" smooth="yes"/>
      <point x="978" y="1334"/>
      <point x="819" y="1518"/>
      <point x="538" y="1518" type="curve" smooth="yes"/>
      <point x="258" y="1518"/>
      <point x="98" y="1333"/>
      <point x="98" y="1051" type="curve" smooth="yes"/>
      <point x="98" y="449" type="line" smooth="yes"/>
    </contour>
    <contour>
      <point x="413.5" y="1681" type="line"/>
      <point x="579.5" y="1739" type="line"/>
      <point x="358.5" y="2218" type="line"/>
      <point x="124.5" y="2110" type="line"/>
    </contour>
    <contour>
      <point x="785.5" y="1681" type="line"/>
      <point x="951.5" y="1739" type="line"/>
      <point x="767.5" y="2218" type="line"/>
      <point x="537.5" y="2110" type="line"/>
    </contour>
  </outline>
</glyph>
<glyph name="uni0211" format="1">
  <advance width="759"/>
  <unicode hex="0211"/>
  <outline>
    <contour>
      <point x="112" y="0" type="line"/>
      <point x="470" y="0" type="line"/>
      <point x="470" y="1147" type="line" smooth="yes"/>
      <point x="470" y="1187"/>
      <point x="640" y="1219"/>
      <point x="728" y="1219" type="curve"/>
      <point x="728" y="1219"/>
      <point x="730" y="1518"/>
      <point x="725" y="1518" type="curve" smooth="yes"/>
      <point x="592" y="1518"/>
      <point x="504" y="1449"/>
      <point x="470" y="1333" type="curve"/>
      <point x="470" y="1500" type="line"/>
      <point x="112" y="1500" type="line"/>
    </contour>
    <contour>
      <point x="295.697" y="1681" type="line"/>
      <point x="461.697" y="1739" type="line"/>
      <point x="240.697" y="2218" type="line"/>
      <point x="6.69727" y="2110" type="line"/>
    </contour>
    <contour>
      <point x="667.697" y="1681" type="line"/>
      <point x="833.697" y="1739" type="line"/>
      <point x="649.697" y="2218" type="line"/>
      <point x="419.697" y="2110" type="line"/>
    </contour>
  </outline>
</glyph>
<glyph name="uni0214" format="1">
  <advance width="1110"/>
  <unicode hex="0214"/>
  <outline>
    <contour>
      <point x="110" y="132"/>
      <point x="263" y="-21"/>
      <point x="556" y="-21" type="curve" smooth="yes"/>
      <point x="849" y="-21"/>
      <point x="1000" y="132"/>
      <point x="1000" y="452" type="curve" smooth="yes"/>
      <point x="1000" y="1761" type="line"/>
      <point x="640" y="1761" type="line"/>
      <point x="640" y="457" type="line" smooth="yes"/>
      <point x="640" y="368"/>
      <point x="635" y="294"/>
      <point x="554" y="294" type="curve" smooth="yes"/>
      <point x="474" y="294"/>
      <point x="470" y="369"/>
      <point x="470" y="457" type="curve" smooth="yes"/>
      <point x="470" y="1761" type="line"/>
      <point x="110" y="1761" type="line"/>
      <point x="110" y="452" type="line" smooth="yes"/>
    </contour>
    <contour>
      <point x="430.5" y="1944" type="line"/>
      <point x="596.5" y="2002" type="line"/>
      <point x="375.5" y="2481" type="line"/>
      <point x="141.5" y="2373" type="line"/>
    </contour>
    <contour>
      <point x="802.5" y="1944" type="line"/>
      <point x="968.5" y="2002" type="line"/>
      <point x="784.5" y="2481" type="line"/>
      <point x="554.5" y="2373" type="line"/>
    </contour>
  </outline>
</glyph>
<glyph name="uni0217" format="1">
  <advance width="1099"/>
  <unicode hex="0217"/>
  <outline>
    <contour>
      <point x="105" y="143"/>
      <point x="157" y="-18"/>
      <point x="398" y="-18" type="curve" smooth="yes"/>
      <point x="534" y="-18"/>
      <point x="583" y="45"/>
      <point x="629" y="160" type="curve"/>
      <point x="629" y="0" type="line"/>
      <point x="987" y="0" type="line"/>
      <point x="987" y="1500" type="line"/>
      <point x="631" y="1500" type="line"/>
      <point x="629" y="443" type="line"/>
      <point x="629" y="360"/>
      <point x="628" y="264"/>
      <point x="545" y="264" type="curve" smooth="yes"/>
      <point x="457" y="264"/>
      <point x="465" y="342"/>
      <point x="465" y="455" type="curve" smooth="yes"/>
      <point x="465" y="1500" type="line"/>
      <point x="105" y="1500" type="line"/>
      <point x="105" y="383" type="line" smooth="yes"/>
    </contour>
    <contour>
      <point x="193" y="1681" type="line"/>
      <point x="411" y="1681" type="line"/>
      <point x="411" y="1806"/>
      <point x="463" y="1824"/>
      <point x="546" y="1824" type="curve" smooth="yes"/>
      <point x="629" y="1824"/>
      <point x="681" y="1806"/>
      <point x="681" y="1681" type="curve"/>
      <point x="899" y="1681" type="line"/>
      <point x="899" y="1696" type="line" smooth="yes"/>
      <point x="899" y="1913"/>
      <point x="782" y="2014"/>
      <point x="548" y="2014" type="curve" smooth="yes"/>
      <point x="308" y="2014"/>
      <point x="193" y="1917"/>
      <point x="193" y="1694" type="curve" smooth="yes"/>
    </contour>
  </outline>
</glyph>
<glyph name="Scommaaccent" format="1">
  <advance width="973"/>
  <unicode hex="0218"/>
  <outline>
    <contour>
      <point x="89" y="123"/>
      <point x="206" y="-21"/>
      <point x="512" y="-21" type="curve" smooth="yes"/>
      <point x="828" y="-21"/>
      <point x="919" y="153"/>
      <point x="919" y="484" type="curve" smooth="yes"/>
      <point x="919" y="723"/>
      <point x="819" y="841"/>
      <point x="693" y="981" type="curve" smooth="yes"/>
      <point x="510" y="1185" type="line" smooth="yes"/>
      <point x="430" y="1275"/>
      <point x="418" y="1334"/>
      <point x="418" y="1383" type="curve" smooth="yes"/>
      <point x="418" y="1452"/>
      <point x="453" y="1474"/>
      <point x="498" y="1474" type="curve" smooth="yes"/>
      <point x="532" y="1474"/>
      <point x="581" y="1453"/>
      <point x="581" y="1361" type="curve" smooth="yes"/>
      <point x="581" y="1224" type="line"/>
      <point x="900" y="1224" type="line"/>
      <point x="900" y="1339" type="line" smooth="yes"/>
      <point x="900" y="1693"/>
      <point x="780" y="1781"/>
      <point x="503" y="1781" type="curve" smooth="yes"/>
      <point x="238" y="1781"/>
      <point x="85" y="1668"/>
      <point x="85" y="1355" type="curve" smooth="yes"/>
      <point x="85" y="1182"/>
      <point x="134" y="1038"/>
      <point x="253" y="909" type="curve" smooth="yes"/>
      <point x="404" y="746" type="line" smooth="yes"/>
      <point x="531" y="608"/>
      <point x="581" y="551"/>
      <point x="581" y="419" type="curve" smooth="yes"/>
      <point x="581" y="333"/>
      <point x="556" y="294"/>
      <point x="503" y="294" type="curve" smooth="yes"/>
      <point x="449" y="294"/>
      <point x="421" y="327"/>
      <point x="421" y="440" type="curve" smooth="yes"/>
      <point x="421" y="610" type="line"/>
      <point x="89" y="610" type="line"/>
      <point x="89" y="473" type="line" smooth="yes"/>
    </contour>
    <contour>
      <point x="397.5" y="-830" type="line"/>
      <point x="565.5" y="-830" type="line"/>
      <point x="667.5" y="-493" type="line"/>
      <point x="667.5" y="-184" type="line"/>
      <point x="336.5" y="-184" type="line"/>
      <point x="336.5" y="-502" type="line"/>
      <point x="463.5" y="-502" type="line"/>
    </contour>
  </outline>
</glyph>
<glyph name="uni021A" format="1">
  <advance width="834"/>
  <unicode hex="021A"/>
  <outline>
    <contour>
      <point x="237" y="0" type="line"/>
      <point x="597" y="0" type="line"/>
      <point x="597" y="1439" type="line"/>
      <point x="802" y="1439" type="line"/>
      <point x="802" y="1761" type="line"/>
      <point x="32" y="1761" type="line"/>
      <point x="32" y="1439" type="line"/>
      <point x="237" y="1439" type="line"/>
    </contour>
    <contour>
      <point x="312.5" y="-809" type="line"/>
      <point x="480.5" y="-809" type="line"/>
      <point x="582.5" y="-472" type="line"/>
      <point x="582.5" y="-163" type="line"/>
      <point x="251.5" y="-163" type="line"/>
      <point x="251.5" y="-481" type="line"/>
      <point x="378.5" y="-481" type="line"/>
    </contour>
  </outline>
</glyph>
<glyph name="dotaccent" format="1">
  <advance width="572"/>
  <unicode hex="02D9"/>
  <outline>
    <contour>
      <point x="107" y="1592" type="line"/>
      <point x="465" y="1592" type="line"/>
      <point x="465" y="1890" type="line"/>
      <point x="107" y="1890" type="line"/>
    </contour>
    <contour>
      <point x="286" y="0" type="move" name="_top"/>
    </contour>
  </outline>
</glyph>
<glyph name="commaaccentcomb" format="1">
  <advance width="528"/>
  <unicode hex="0326"/>
  <outline>
    <contour>
      <point x="176" y="-328" type="line"/>
      <point x="344" y="-328" type="line"/>
      <point x="446" y="9" type="line"/>
      <point x="446" y="318" type="line"/>
      <point x="115" y="318" type="line"/>
      <point x="115" y="0" type="line"/>
      <point x="242" y="0" type="line"/>
    </contour>
    <contour>
      <point x="280.5" y="0" type="move" name="_bottom"/>
    </contour>
  </outline>
</glyph>
<glyph name="uni1E56" format="1">
  <advance width="1064"/>
  <unicode hex="1E56"/>
  <outline>
    <contour>
      <point x="122" y="0" type="line"/>
      <point x="482" y="0" type="line"/>
      <point x="482" y="697" type="line"/>
      <point x="625" y="697" type="line" smooth="yes"/>
      <point x="917" y="697"/>
      <point x="1004" y="903"/>
      <point x="1004" y="1224" type="curve" smooth="yes"/>
      <point x="1004" y="1600"/>
      <point x="893" y="1761"/>
      <point x="601" y="1761" type="curve" smooth="yes"/>
      <point x="122" y="1761" type="line"/>
    </contour>
    <contour>
      <point x="482" y="993" type="line"/>
      <point x="482" y="1490" type="line"/>
      <point x="521" y="1490" type="line" smooth="yes"/>
      <point x="634" y="1490"/>
      <point x="644" y="1391"/>
      <point x="644" y="1230" type="curve" smooth="yes"/>
      <point x="644" y="1061"/>
      <point x="636" y="993"/>
      <point x="522" y="993" type="curve" smooth="yes"/>
    </contour>
    <contour>
      <point x="384" y="1944" type="line"/>
      <point x="742" y="1944" type="line"/>
      <point x="742" y="2242" type="line"/>
      <point x="384" y="2242" type="line"/>
    </contour>
  </outline>
</glyph>
<glyph name="uni1E57" format="1">
  <advance width="1091"/>
  <unicode hex="1E57"/>
  <outline>
    <contour>
      <point x="112" y="-300" type="line"/>
      <point x="468" y="-300" type="line"/>
      <point x="468" y="78" type="line"/>
      <point x="515" y="27"/>
      <point x="585" y="-18"/>
      <point x="675" y="-18" type="curve" smooth="yes"/>
      <point x="971" y="-18"/>
      <point x="993" y="225"/>
      <point x="993" y="521" type="curve" smooth="yes"/>
      <point x="993" y="1075" type="line" smooth="yes"/>
      <point x="993" y="1323"/>
      <point x="940" y="1518"/>
      <point x="692" y="1518" type="curve" smooth="yes"/>
      <point x="603" y="1518"/>
      <point x="506" y="1449"/>
      <point x="468" y="1349" type="curve"/>
      <point x="468" y="1500" type="line"/>
      <point x="112" y="1500" type="line"/>
    </contour>
    <contour>
      <point x="637" y="346"/>
      <point x="629" y="262"/>
      <point x="556" y="262" type="curve" smooth="yes"/>
      <point x="481" y="262"/>
      <point x="468" y="336"/>
      <point x="468" y="422" type="curve" smooth="yes"/>
      <point x="468" y="1079" type="line" smooth="yes"/>
      <point x="468" y="1183"/>
      <point x="498" y="1235"/>
      <point x="554" y="1235" type="curve" smooth="yes"/>
      <point x="631" y="1235"/>
      <point x="637" y="1152"/>
      <point x="637" y="1075" type="curve" smooth="yes"/>
      <point x="637" y="438" type="line" smooth="yes"/>
    </contour>
    <contour>
      <point x="373.5" y="1681" type="line"/>
      <point x="731.5" y="1681" type="line"/>
      <point x="731.5" y="1979" type="line"/>
      <point x="373.5" y="1979" type="line"/>
    </contour>
  </outline>
</glyph>
<glyph name="quoteleft" format="1">
  <advance width="577"/>
  <unicode hex="2018"/>
  <outline>
    <contour>
      <point x="425" y="1768" type="line"/>
      <point x="234" y="1768" type="line"/>
      <point x="82" y="1320" type="line"/>
      <point x="82" y="988" type="line"/>
      <point x="491" y="988" type="line"/>
      <point x="491" y="1329" type="line"/>
      <point x="329" y="1329" type="line"/>
    </contour>
  </outline>
</glyph>
<glyph name="integral" format="1">
  <advance width="767"/>
  <unicode hex="222B"/>
  <outline>
    <contour>
      <point x="166" y="-11"/>
      <point x="234" y="-21"/>
      <point x="319" y="-21" type="curve" smooth="yes"/>
      <point x="483" y="-21"/>
      <point x="554" y="61"/>
      <point x="554" y="221" type="curve" smooth="yes"/>
      <point x="554" y="1455" type="line" smooth="yes"/>
      <point x="554" y="1506"/>
      <point x="560" y="1536"/>
      <point x="609" y="1536" type="curve" smooth="yes"/>
      <point x="619" y="1536"/>
      <point x="633" y="1534"/>
      <point x="652" y="1531" type="curve"/>
      <point x="652" y="1752" type="line"/>
      <point x="601" y="1771"/>
      <point x="533" y="1781"/>
      <point x="448" y="1781" type="curve" smooth="yes"/>
      <point x="281" y="1781"/>
      <point x="206" y="1702"/>
      <point x="206" y="1539" type="curve" smooth="yes"/>
      <point x="206" y="305" type="line" smooth="yes"/>
      <point x="206" y="257"/>
      <point x="206" y="224"/>
      <point x="158" y="224" type="curve" smooth="yes"/>
      <point x="148" y="224"/>
      <point x="134" y="226"/>
      <point x="115" y="229" type="curve"/>
      <point x="115" y="8" type="line"/>
    </contour>
  </outline>
</glyph>
